<?xml version="1.0" encoding="iso-8859-1"?>
<!-- Uploaded to: SVG Repo, www.svgrepo.com, Generator: SVG Repo Mixer Tools -->
<svg fill="#000000" height="800px" width="800px" version="1.1" id="Layer_1" xmlns="http://www.w3.org/2000/svg" xmlns:xlink="http://www.w3.org/1999/xlink" 
	 viewBox="0 0 512 512" xml:space="preserve">
<g>
	<g>
		<path d="M256,0C148.545,0,61.124,87.421,61.124,194.876c0,44.359,23.793,103.322,70.719,175.252
			c36.672,56.213,78.054,105.971,99.458,130.629C237.504,507.902,246.5,512,255.983,512c0.008,0,0.037,0,0.044,0
			c9.48-0.012,18.475-4.128,24.676-11.294c21.401-24.728,62.778-74.611,99.447-130.86c46.93-71.99,70.726-130.858,70.726-174.97
			C450.877,87.421,363.456,0,256,0z M255.981,478.296C177.809,388.13,94.485,266.514,94.485,194.876
			c0-89.06,72.456-161.515,161.515-161.515s161.515,72.456,161.515,161.515C417.517,266.071,334.168,387.842,255.981,478.296z"/>
	</g>
</g>
<g>
	<g>
		<path d="M256,62.101c-73.213,0-132.775,59.563-132.775,132.775S182.788,327.651,256,327.651s132.775-59.563,132.775-132.775
			S329.213,62.101,256,62.101z M256,294.291c-54.818,0-99.415-44.597-99.415-99.415S201.182,95.461,256,95.461
			s99.415,44.598,99.415,99.415S310.818,294.291,256,294.291z"/>
	</g>
</g>
<g>
	<g>
		<path d="M330.744,166.695c-2.349-7.239-8.162-12.658-15.545-14.493l-26.281-6.535l-14.336-22.973
			c-4.027-6.455-10.972-10.31-18.582-10.31c-7.604,0-14.549,3.851-18.581,10.307l-14.337,22.975l-26.278,6.534
			c-7.383,1.835-13.194,7.249-15.545,14.483c-2.353,7.236-0.836,15.035,4.058,20.859l17.421,20.736l-1.906,27.021
			c-0.533,7.586,2.822,14.783,8.974,19.252c3.766,2.737,8.218,4.183,12.874,4.183c2.829,0,5.592-0.538,8.216-1.6l25.104-10.159
			l25.103,10.159c2.623,1.062,5.388,1.6,8.218,1.6c4.656,0,9.106-1.447,12.873-4.183c6.152-4.469,9.507-11.666,8.974-19.259
			l-1.906-27.014l17.42-20.735C331.577,181.719,333.095,173.92,330.744,166.695z M279.377,191.989
			c-2.784,3.315-4.171,7.584-3.868,11.903l1.089,15.43l-14.341-5.804c-2.007-0.812-4.132-1.219-6.257-1.219s-4.25,0.406-6.257,1.219
			l-14.341,5.804l1.089-15.43c0.304-4.319-1.083-8.588-3.868-11.903l-9.95-11.844l15.012-3.733
			c4.201-1.045,7.833-3.683,10.125-7.357l8.189-13.123l8.189,13.123c2.293,3.674,5.924,6.312,10.125,7.357l15.012,3.733
			L279.377,191.989z"/>
	</g>
</g>
</svg>